<?xml version="1.0" encoding="UTF-8"?>
<svg id="Calque_1" data-name="Calque 1" xmlns="http://www.w3.org/2000/svg" viewBox="0 0 500 500">
  <defs>
    <style>
      .cls-1 {
        fill: #7aad2c;
      }

      .cls-2 {
        fill: #fcfdfc;
      }

      .cls-3 {
        fill: #008ad1;
      }
    </style>
  </defs>
  <path class="cls-2" d="M254.04,12.44c-4.95-6.74-8.27-4.24-11.5,2.62-2.22,4.71-1.85,7.6.94,11.98,2.62,4.1,5.18,6.42,9.19,2.71,5.41-5,5.65-11.48,1.37-17.31ZM220.3,8.98c-9.64,10.56-10.47,20.61,1.5,29.65,6.95,5.24,8.98,3.44,12.24-4.77,4.87-12.26-3.07-20.46-13.74-24.88ZM280.75,12c-3.84-5.14-7.01-1.75-11.07,1.93-10.3,9.3-7.58,17.96-.37,28.24,13.9-4.6,21.17-17.13,11.44-30.17ZM192.46,16c-2.73,6.14-.36,11.34,6.42,12.05,4.66-5.04-.03-12.29-6.42-12.05ZM304.98,16.04c-4.14.6-7.49,2.98-7.54,7.5-.07,5.95,4.83,5.5,7.86,2.28,1.6-1.7,2.24-9.15-.32-9.78ZM173.23,29.61c-5.14-2.39-8.57-2.84-8.05,3.92.51,6.68,7.18,9.34,13.08,9.73,1.73-5.93.97-10.86-5.03-13.65ZM332.84,28.1c-9.73-.01-14.89,5.13-13.13,15.16,9.44-.49,14.68-5.36,13.13-15.16ZM191.51,32.22c-9.51,19.91-3.52,34.65,16.81,42.14,6.25,2.31,8.13,4.38,10.84-2.82,8.57-22.74-6.99-35.2-27.65-39.32ZM311.55,47.98c-.2-3.74-2.95-16.13-7.24-15.68-9.08.97-25.55,11.87-26.95,21.67-.6,4.22.43,19.76,3.92,22.23,3.3,2.34,20.28-7.21,23.31-10.15,4.41-4.29,7.28-11.92,6.96-18.07ZM261.95,54.05c-1.85-2.55-10.59-12.06-13.23-11.67-3.41.5-12.23,11.14-14.07,14.34-8.14,14.19-2.76,28.8,9.28,38.62,3.75,3.06,4.38,4.53,8.59,1.49,14.33-10.31,20.46-27.55,9.43-42.78ZM143.92,44.27c-2.95,23.28,15.31,33.7,36.38,31.35,2.64-23-15.83-32.72-36.38-31.35ZM355.07,44.27c-20.88-1.64-39.48,7.91-37.39,31.35,21.57,2.45,38.94-7.92,37.39-31.35ZM140.11,67.81c-3.71-5.77-9.46-4.25-15.38-4.32-.36,6.72,5.19,11,11.61,11.18,6.1.17,7.02-1.8,3.77-6.86ZM358.66,67.59c-4.28,5.69-2.99,7.45,4.02,7.07,6.88-.36,10.46-4.68,11.57-11.17-6.29.14-11.32-1.56-15.59,4.1ZM172.74,90.76c-11.52-12.45-28.27-9.71-42.96-6.05,1.07,12.71,13.33,24.65,25.88,26.17,3.91.48,24.63-.81,25.55-4.52.61-2.41-6.45-13.42-8.47-15.6ZM342.7,81.94c-12.5,1.71-22.98,13.16-25.6,25.06,21.51,9.57,45.77,2.82,51.68-21.32-8-3.36-17.46-4.92-26.08-3.74ZM110.58,85.73c-.36,7.32,9.11,9.87,14.15,5.54-2.64-6.29-8.14-7.06-14.15-5.54ZM232.31,95.84c-7.13-6.94-31.2-14.01-40.25-10.99-2.79.94-.96,11.33-.39,14.26,4.92,25.32,27.6,30.23,50.25,30.08v-14.66c0-4.11-6.46-15.61-9.61-18.69ZM307.59,84.71c-29.56-2.45-55.06,11.66-51.53,44.49,10.89-.22,22.34-.85,32.36-5.54,15.66-7.33,19.84-22.68,19.17-38.95ZM387.39,85.73c-3.96-2.34-14.35.96-14.12,5.56.2,3.87,17.03,2.12,14.12-5.56ZM115.38,104.16c-1.5.24-12.44,4.3-12.83,4.86-1.87,2.71,8.77,11.07,11.4,12.26,9.32,4.23,19.06,1.02,26.95-4.74-5.94-9.28-14.27-14.17-25.52-12.38ZM373.99,104.16c-6.66,1.14-13.3,6.93-16.89,12.4,13.44,10.27,30.14,8.46,39.37-6.07-6.49-4.78-14.35-7.71-22.48-6.33ZM141.91,134.25h64.65c-17.15-19.84-47.87-20.82-64.65,0ZM291.42,134.25h65.66c-17.97-20.37-47.76-20.3-65.66,0ZM116.16,128.11c-5.02-.12-12.96,1.83-14.66,7.15h27.27c-1.34-4.59-8.15-7.04-12.61-7.15ZM393.79,131.38c-7.19-5.23-16.75-4.19-23.29,1.56-.7.62-1.92-.06-1.29,2.32h27.27c.35-2.08-1.3-2.87-2.69-3.88ZM397.49,149.92l-297-.51v224.43l297-.51h1.01v-223.41h-1.01ZM145.97,167.13c.29-2.18,1.89-3.47,4.02-3.56,9.48.69,19.51.4,29.59,0h40.11c4.06.4,4.59,1.4,5.07,5.54,1.08,9.32.83,29.91.03,39.48-.48,5.64-.94,6.1-6.57,6.57-16.38,1.38-49.59,1.62-65.77.02-4.54-.45-5.98-1.86-6.53-6.61-1.48-12.8,1.13-28.32.05-41.44ZM224.24,362.72l-4,2.07-72.29-.54c-1.5-1.36-1.81-3.15-2.02-5.05-1.05-9.21-.88-30.09-.03-39.49.19-2.12.37-5.57,2.74-6.36,10.89,1.54,68.95-3.02,74.51.92,1.55,1.09,1.46,1.7,1.65,3.41,1.55,13.69-.85,31.01-.56,45.04ZM224.79,283.41c-.47,3.59-1.87,4.7-5.54,4.56l-71.3-.55c-1.5-1.36-1.81-3.15-2.02-5.05-1.05-9.25-.87-30.04-.03-39.49.19-2.18.5-5.93,3.08-6.53h71.72c3.32.85,3.7,2.33,4.04,5.55.94,8.75,1.16,33,.05,41.51ZM270.16,168.07c.39-2.96,1.03-4.02,4.09-4.5,9.74.2,19.5.11,29.27,0h39.42c.67,0,1.36-.05,2.02,0,1.95,1.41,2.79,1.84,3.1,4.48,1.61,13.48-1.34,30.2-.07,44.04-.51.97-1.01,1.91-1.99,2.51l-73.78.02c-1.68-.93-1.84-2.28-2.06-4-1.02-7.9-1.05-34.7,0-42.55ZM270.16,242.88c.19-2.18.5-5.93,3.08-6.53l68.21-.03c1.22.06,6.03,1.67,6.37,2.22,2.12,3.46-1.25,40.3.17,47.35l-.95,1.52h-74.82c-1.68-.94-1.84-2.28-2.06-4-1.14-8.83-.81-31.34,0-40.53ZM272.21,364.25c-1.5-1.36-1.81-3.15-2.02-5.05-1-8.8-1.01-31.69,0-40.47.32-2.86,1.04-5.76,4.5-5.6,21.85,1.9,47.4-2.35,68.78.03,2.03.22,3.2.3,4.52,2.05-1.36,14.41,1.8,32.02.09,46.03-.27,2.21-2.41,1.67-3.12,3.5-24.01,1.47-48.69-.68-72.75-.49ZM425.18,381.81c-2.45-1.76-15.45-3.72-19.06-3.97H93.87c-7.04,1.76-23.17-.31-21.67,10.15h353.58c-.29-1.68.8-5.17-.6-6.18ZM320.36,448.49c-17.23-3.26-19.75-27.65-6.74-37.77,6.63-5.16,19.67-5.15,26.26.05,1.67,1.32,2.72,4.89,4.51,4.48,1.28-2.31,11.09-8.81,10.67-10.56-10.22-7.06-18.5-13.08-31.51-12.36-14.27.79-31.16,13.25-33.7,27.96-5.76,33.42,25.85,52.52,55.01,38.87,3.63-1.69,6.33-5.3,9.18-7.98l-9.72-8.53c-7.45,6.81-14.24,7.67-23.96,5.84ZM144.94,454.71c-9.12-19.78-18.05-39.68-26.75-59.67-1.52-1.56-15.82-1.64-17.2.02l-26.77,61.68-3.03,6.06,16.49.04c.91-.21,1.28-2.14,1.69-3.07,1.36-3.08,2.51-8.51,4.04-11.12,9.58,1,21.65-1.32,30.88-.08,2.23.29,1.24,1.87,2.46,3.11,1.03,2.6,1.94,5.62,3.03,8.09.41.93.79,2.86,1.69,3.07l16.49-.04c.26-3.15-1.83-5.5-3.02-8.09ZM109.08,411.24c2.17-.76,2.18,5.4,3.7,6.4l6.9,17.87h-20.2c1.8-2.99,8.37-23.84,9.6-24.27ZM207.07,448.65h-32.84l-1.01-54.59h-15.15c-1.68,1.05-1.01,3.83-1.03,5.54-.21,17.42-1.96,43.26-.03,59.71.12,1.02.46,3.49,1.56,3.49h48.5c2.27,0,2.27-14.15,0-14.15ZM278.29,459.77c-1.98-2.6-13.18-17.03-13.18-18.73.01-2.58,3.03-2.21,4.59-3.51,20.3-16.93,5.99-41.08-17.31-43.34-10.52-1.02-22.06.48-32.7-.13l-1.01,68.74h17.18v-19.21c1.82-.6,12.67-.12,14.45.96.8.48,8.93,12.85,10.8,15.22.01.02.03.05.04.07.02.05.03.1.04.16.01.04.02.08.02.13,0,.06,0,.13.02.2.01.07.01.14.02.22.01.12.02.25.04.38.02.11.04.23.07.34.01.05.02.1.04.15.02.06.04.11.06.16.04.1.09.2.15.3.04.08.1.15.17.22,0,.01.02.03.04.04.07.08.15.14.23.19,2.71,1.7,14.31-.27,18.26.46.39-.3-1.63-2.51-2.02-3.02ZM235.86,430.45v-23.25c9.67.54,26.34-2.45,26.34,11.63,0,15.14-16.29,11.56-26.34,11.62ZM418.71,407.21v-13.15h-51.52v67.73c.5,1.55,10.48,1.25,12.71,1.07,1.65-.13,2.11.28,3.45-1.07.99-.99.91-1.01,1.07-2.42.45-4.13.58-16.98-.06-20.83,9.56-.63,20.03,1.31,29.3-1.01.36-.05.79.1,1.01,0,2.19-1.02.48-10.46,1.01-13.14h-31.32v-17.19h34.35Z"/>
  <path class="cls-3" d="M100.49,149.41v224.43h297v-224.43H100.49ZM342.94,163.57c.67,0,1.36-.05,2.02,0,3.61.27,3.63.13,4.04,4.53.89,9.46,1.2,32.42.06,41.57-.19,1.56-.62,1.56-1.07,2.42-.51.97-1.01,1.91-1.99,2.51l-73.78.02c-1.68-.93-1.84-2.28-2.06-4-1.02-7.9-1.05-34.7,0-42.55.39-2.96,1.03-4.02,4.09-4.5h68.69ZM270.16,242.88c.19-2.18.5-5.93,3.08-6.53l74.08-.08c1.57,1,1.59,3.9,1.72,5.6.95,11.66.13,26.49-.02,38.47-.02,1.71.65,4.5-1.03,5.55l-.95,1.52h-74.82c-1.68-.94-1.84-2.28-2.06-4-1.14-8.83-.81-31.34,0-40.53ZM270.19,318.73c.32-2.86,1.04-5.76,4.5-5.6,21.85,1.9,47.4-2.35,68.78.03,2.03.22,3.2.3,4.52,2.05.75.99.91.9,1.07,2.41,1.1,9.89.88,32.51-.06,42.58-.4,4.33-.42,4.32-4.04,4.54-24.01,1.47-48.69-.68-72.75-.49-1.5-1.36-1.81-3.15-2.02-5.05-1-8.8-1.01-31.69,0-40.47ZM224.24,362.72l-4,2.07-72.29-.54c-1.5-1.36-1.81-3.15-2.02-5.05-1.05-9.21-.88-30.09-.03-39.49.19-2.12.37-5.57,2.74-6.36,10.89,1.54,68.95-3.02,74.51.92,1.55,1.09,1.46,1.7,1.65,3.41,1.55,13.69-.85,31.01-.56,45.04ZM224.79,283.41c-.47,3.59-1.87,4.7-5.54,4.56l-71.3-.55c-1.5-1.36-1.81-3.15-2.02-5.05-1.05-9.25-.87-30.04-.03-39.49.19-2.18.5-5.93,3.08-6.53h71.72c3.32.85,3.7,2.33,4.04,5.55.94,8.75,1.16,33,.05,41.51ZM145.97,167.13c.29-2.18,1.89-3.47,4.02-3.56h69.7c4.06.4,4.59,1.4,5.07,5.54,1.08,9.32.83,29.91.03,39.48-.48,5.64-.94,6.1-6.57,6.57-16.38,1.38-49.59,1.62-65.77.02-4.54-.45-5.98-1.86-6.53-6.61-1.48-12.8,1.13-28.32.05-41.44Z"/>
  <path class="cls-3" d="M72.2,387.99c-1.5-10.46,14.64-8.39,21.67-10.16h312.25c3.61.25,16.61,2.21,19.06,3.98,1.4,1.01.31,4.5.6,6.18H72.2Z"/>
  <path class="cls-3" d="M265.11,441.04c.01-2.58,3.03-2.21,4.59-3.51,20.3-16.93,5.99-41.08-17.31-43.34-10.52-1.02-22.06.48-32.7-.13v67.73h15.16c.56-3-1.19-17.47,1.01-18.2,1.82-.6,12.67-.12,14.45.96.8.48,8.93,12.85,10.8,15.22.01.02.03.05.04.07.02.03.04.06.07.09.06.1.13.19.21.28.11.13.23.25.36.36.06.06.13.11.2.17.09.07.19.14.29.2.1.07.2.12.3.18.07.04.14.07.22.1.12.07.24.12.37.17.15.06.29.11.45.16.14.05.28.09.42.13.24.06.48.12.74.17.25.05.5.09.77.12.22.03.44.05.67.07.21.02.42.04.64.05.16.01.33.02.5.02.32.01.64.02.96.02.45,0,.9-.01,1.35-.03.44-.01.89-.04,1.32-.06.86-.05,1.69-.12,2.44-.17.5-.03.96-.06,1.37-.08,1.94-.07,4.05,1.04,3.49-2.02-1.98-2.6-13.18-17.03-13.18-18.73ZM235.86,430.45c-1.69-6.88-1.69-16.37,0-23.25,9.67.54,26.34-2.45,26.34,11.63,0,15.14-16.29,11.56-26.34,11.62Z"/>
  <path class="cls-3" d="M144.94,454.71c-9.12-19.78-18.05-39.68-26.75-59.67-1.52-1.56-15.82-1.64-17.2.02l-26.77,61.68-1.01,5.05c5.32-.59,11.8,1.7,16.16-2.02,1.36-3.08,2.51-8.51,4.04-11.12.76-1.28,1.2-.93,2.44-1.07,4.81-.56,24.07-.76,28.38.05,3.45.65,1.89,2.46,2.52,4.05,1.03,2.6,1.94,5.62,3.03,8.09,4.62,3.81,11.57,1.37,17.17,2.02l-2.01-7.08ZM99.48,435.51c1.8-2.99,8.37-23.84,9.6-24.27,2.17-.76,2.18,5.4,3.7,6.4l6.9,17.87h-20.2Z"/>
  <path class="cls-3" d="M323.55,392.33c13.01-.72,21.28,5.3,31.51,12.36.41,1.76-9.39,8.25-10.67,10.57-1.79.4-2.85-3.16-4.51-4.48-6.58-5.2-19.63-5.21-26.26-.05-13.01,10.12-10.49,34.52,6.74,37.77,9.72,1.83,16.5.97,23.96-5.83l9.72,8.52c-2.85,2.68-5.55,6.29-9.17,7.99-29.16,13.65-60.78-5.45-55.01-38.88,2.54-14.71,19.43-27.17,33.7-27.96Z"/>
  <path class="cls-3" d="M367.19,461.79v-67.73h51.52v13.15s-34.35,0-34.35,0c-2.2.72-.45,15.09-1.01,18.2h30.31c.29,4-.89,8.44,1.01,12.13-.22.1-.65-.05-1.01,0-9.2,1.23-20.81-.92-30.31.01-.26.81.99.91,1.01,1,.64,3.85.51,16.71.06,20.83-.15,1.41-.08,1.44-1.07,2.42h-16.16Z"/>
  <path class="cls-1" d="M307.59,84.71c.68,16.28-3.51,31.62-19.17,38.95-10.02,4.69-21.47,5.32-32.36,5.54-3.53-32.83,21.98-46.94,51.53-44.49Z"/>
  <path class="cls-1" d="M241.92,129.19c-22.65.15-45.33-4.76-50.25-30.08-.57-2.93-2.4-13.32.39-14.26,9.06-3.03,33.13,4.04,40.26,10.99,3.15,3.07,9.61,14.58,9.61,18.69v14.66Z"/>
  <polygon class="cls-3" points="173.22 394.06 173.22 449.66 207.57 449.66 207.57 461.79 158.07 461.79 158.07 394.06 173.22 394.06"/>
  <path class="cls-1" d="M248.72,42.38c2.64-.39,11.38,9.12,13.23,11.67,11.03,15.22,4.9,32.46-9.43,42.78-4.21,3.04-4.84,1.57-8.6-1.5-12.03-9.81-17.41-24.43-9.27-38.62,1.84-3.2,10.66-13.83,14.07-14.34Z"/>
  <path class="cls-1" d="M129.78,84.71c14.7-3.67,31.44-6.4,42.96,6.04,2.02,2.19,9.08,13.19,8.47,15.61-.92,3.7-21.64,5-25.56,4.52-12.54-1.52-24.8-13.46-25.88-26.17Z"/>
  <path class="cls-1" d="M342.7,81.94c8.62-1.18,18.09.38,26.08,3.74-5.91,24.14-30.17,30.89-51.68,21.32,2.62-11.89,13.1-23.35,25.6-25.06Z"/>
  <path class="cls-1" d="M304.31,32.3c4.29-.46,7.04,11.94,7.24,15.67.32,6.16-2.55,13.78-6.96,18.07-3.03,2.95-20.01,12.49-23.3,10.16-3.5-2.48-4.52-18.02-3.92-22.24,1.4-9.79,17.86-20.7,26.95-21.67Z"/>
  <path class="cls-1" d="M191.51,32.22c20.66,4.12,36.22,16.57,27.65,39.32-2.71,7.19-4.59,5.12-10.85,2.82-20.33-7.49-26.31-22.23-16.81-42.14Z"/>
  <path class="cls-1" d="M355.07,44.27c1.55,23.43-15.82,33.8-37.39,31.35-2.09-23.44,16.51-32.98,37.39-31.35Z"/>
  <path class="cls-1" d="M180.3,75.62c-21.07,2.35-39.33-8.07-36.38-31.35,20.55-1.37,39.02,8.35,36.38,31.35Z"/>
  <path class="cls-1" d="M357.08,134.25h-65.67c17.9-20.29,47.69-20.37,65.67,0Z"/>
  <path class="cls-1" d="M206.56,134.25h-64.65c16.78-20.81,47.51-19.84,64.65,0Z"/>
  <path class="cls-1" d="M220.3,8.98c10.67,4.42,18.61,12.63,13.74,24.88-3.26,8.21-5.29,10.01-12.24,4.77-11.98-9.04-11.14-19.08-1.5-29.65Z"/>
  <path class="cls-1" d="M373.99,104.16c8.12-1.38,15.99,1.55,22.47,6.32-9.23,14.54-25.92,16.34-39.36,6.07,3.59-5.47,10.23-11.26,16.89-12.39Z"/>
  <path class="cls-1" d="M102.55,109.02c.39-.56,11.33-4.62,12.83-4.86,11.25-1.8,19.58,3.09,25.52,12.37-7.89,5.76-17.63,8.97-26.95,4.75-2.63-1.19-13.27-9.55-11.4-12.26Z"/>
  <path class="cls-1" d="M269.31,42.17c-7.21-10.28-9.92-18.95.37-28.25,4.06-3.67,7.24-7.06,11.07-1.93,9.73,13.04,2.47,25.57-11.44,30.18Z"/>
  <polygon class="cls-1" points="100.49 373.84 397.49 373.84 397.49 149.41 100.49 149.41 398.5 149.92 398.5 373.33 100.49 373.84"/>
  <path class="cls-1" d="M252.67,29.75c-4.01,3.7-6.57,1.39-9.19-2.71-2.8-4.38-3.16-7.27-.94-11.98,3.24-6.86,6.55-9.36,11.5-2.63,4.28,5.83,4.04,12.32-1.37,17.32Z"/>
  <path class="cls-1" d="M178.26,43.26c-5.9-.39-12.57-3.05-13.08-9.73-.52-6.76,2.91-6.31,8.05-3.92,6.01,2.79,6.76,7.72,5.03,13.65Z"/>
  <path class="cls-1" d="M332.84,28.1c1.55,9.8-3.69,14.67-13.13,15.17-1.76-10.03,3.4-15.17,13.13-15.17Z"/>
  <path class="cls-1" d="M396.48,135.26h-27.28c-.62-2.38.59-1.7,1.29-2.32,6.54-5.75,16.11-6.79,23.29-1.56,1.39,1.01,3.04,1.8,2.69,3.88Z"/>
  <path class="cls-1" d="M128.77,135.26h-27.28c1.71-5.32,9.65-7.27,14.66-7.15,4.46.11,11.27,2.55,12.61,7.15Z"/>
  <path class="cls-1" d="M374.25,63.49c-1.12,6.49-4.69,10.81-11.57,11.18s-8.31-1.39-4.02-7.08,9.3-3.96,15.59-4.1Z"/>
  <path class="cls-1" d="M124.73,63.49c5.93.07,11.68-1.45,15.38,4.32,3.25,5.06,2.33,7.03-3.77,6.86-6.42-.18-11.97-4.46-11.61-11.18Z"/>
  <path class="cls-1" d="M219.69,394.06v67.73h15.15c.56-3-1.19-17.47,1.01-18.2v19.21h-17.17l1.01-68.74Z"/>
  <path class="cls-1" d="M158.07,394.06v67.73h49.5v-12.13h-34.35v-55.6l1.01,54.59h32.83c2.27,0,2.27,14.15,0,14.15h-48.49c-1.11,0-1.45-2.47-1.57-3.49-1.93-16.45-.18-42.29.03-59.71.02-1.71-.65-4.5,1.03-5.55Z"/>
  <path class="cls-1" d="M387.39,85.73c2.9,7.68-13.92,9.43-14.12,5.56-.24-4.6,10.15-7.9,14.12-5.56Z"/>
  <path class="cls-1" d="M110.58,85.73c6-1.52,11.51-.75,14.14,5.54-5.04,4.33-14.5,1.78-14.14-5.54Z"/>
  <path class="cls-1" d="M192.46,16c6.39-.24,11.09,7.01,6.42,12.05-6.78-.71-9.15-5.91-6.42-12.05Z"/>
  <path class="cls-1" d="M305.3,25.82c-3.03,3.22-7.93,3.67-7.86-2.28.05-4.52,3.4-6.9,7.54-7.5,2.56.63,1.92,8.08.32,9.78Z"/>
  <path class="cls-1" d="M384.36,407.2v17.19h31.32c-.53,2.68,1.19,12.12-1.01,13.14-1.9-3.69-.72-8.13-1.01-12.13h-30.31c.56-3.11-1.19-17.48,1.01-18.2Z"/>
  <path class="cls-1" d="M126.75,451.68c-1.22-1.24-.23-2.82-2.46-3.12-9.23-1.23-21.3,1.08-30.88.08.76-1.28,1.2-.92,2.43-1.07,4.82-.56,24.07-.76,28.38.05,3.45.65,1.89,2.46,2.52,4.05Z"/>
  <path class="cls-1" d="M413.66,437.53c-9.27,2.32-19.74.39-29.3,1.01-.02-.09-1.27-.19-1.01-1,9.49-.93,21.1,1.22,30.31-.01Z"/>
  <path class="cls-1" d="M74.22,456.74l-1.01,5.05c5.32-.58,11.8,1.71,16.16-2.02-.41.93-.79,2.86-1.69,3.07l-16.49-.04,3.03-6.06Z"/>
  <path class="cls-1" d="M144.94,454.71c1.19,2.59,3.29,4.93,3.03,8.08l-16.49.04c-.9-.21-1.28-2.14-1.69-3.07,4.62,3.81,11.57,1.37,17.17,2.02l-2.02-7.07Z"/>
  <path class="cls-1" d="M261.11,459.77c2,3.39,9.91,2.17,13.68,2.02,1.94-.08,4.05,1.04,3.49-2.02.39.52,2.42,2.73,2.02,3.02-3.94-.73-15.54,1.24-18.25-.47-1.02-.64-.7-2.25-.94-2.56Z"/>
  <path class="cls-1" d="M383.35,461.79c-1.34,1.34-1.8.94-3.45,1.07-2.24.18-12.21.48-12.72-1.07h16.16Z"/>
  <path class="cls-1" d="M349.02,280.34c-.02,1.71.65,4.5-1.03,5.55-1.42-7.05,1.95-43.89-.17-47.35-.34-.55-5.15-2.16-6.37-2.22l-68.21.03,74.08-.08c1.57,1,1.59,3.9,1.72,5.6.95,11.66.13,26.49-.02,38.47Z"/>
  <path class="cls-1" d="M149.99,163.57h29.59c-10.08.4-20.11.69-29.59,0Z"/>
  <path class="cls-1" d="M219.69,163.57h-40.11c13.69-.53,27.47-1.26,40.11,0Z"/>
  <path class="cls-1" d="M274.25,163.57h29.27c-9.77.11-19.53.2-29.27,0Z"/>
  <path class="cls-1" d="M342.94,163.57h-39.42c13.15-.16,26.31-.37,39.42,0Z"/>
  <path class="cls-1" d="M349,360.2c-.4,4.33-.42,4.32-4.04,4.54.71-1.83,2.85-1.29,3.12-3.5,1.71-14.01-1.45-31.62-.09-46.03.75.99.91.9,1.07,2.41,1.1,9.89.88,32.51-.06,42.58Z"/>
  <path class="cls-1" d="M349.06,209.67c-.19,1.56-.62,1.56-1.07,2.42-1.27-13.84,1.68-30.56.07-44.04-.31-2.64-1.15-3.07-3.1-4.48,3.61.27,3.63.13,4.04,4.53.89,9.46,1.2,32.42.06,41.57Z"/>
  <path class="cls-1" d="M235.86,407.2v23.25c-1.69-6.88-1.69-16.37,0-23.25Z"/>
</svg>